Patient4_TMGait_0pt5_01_right_39_EMG.mot
version=1
nRows=16
nColumns=33
inDegrees=no
endheader
time	1LAddLong	2LGlutMax	3LGlutMed	4LIliopsoas	5LSemiMemb	6LBicFemLong	7LRecFem	8LVastMed	9LVastLat	10LGasMed	11LTibAnt	12lTibPost	13LPeroneusLong	14LSol	15LExtDigLong	16LFlexDigLong	17RAddLong	18RGlutMax	19RGlutMed	20RIliopsoas	21RSemiMemb	22RBicFemLong	23RRecFem	24RVastMed	25RVastLat	26RGasMed	27RTibAnt	28RTibPost	29RPeroneusLong	30RSol	31RExtDigLong	32RFlexDigLong
52.723	-0.002289	-0.036774	0.000153	0.010529	0.01236	-0.040894	0.14114	0.000458	-0.024414	0.015259	-0.17441	-0.054169	-0.065002	-0.058746	0.65216	-0.005188	0.019073	-0.035248	-0.027313	0.052338	-0.062408	-0.064392	0.020752	-0.10864	0.02182	-0.006866	0.071869	-0.004578	0.024414	0.016022	-0.003204	0.002441
52.724	0.001221	-0.037231	0.000153	0.005188	0.01236	-0.036621	0.09903	-0.000305	-0.013428	0.004578	0.00946	-0.13947	-0.14816	-0.063934	0.3479	0.00824	0.013428	-0.033112	-0.066681	0.040436	-0.061951	-0.026398	0.06485	-0.121	0.000305	-0.009766	0.18204	-0.007477	0.041046	0.041962	-0.002289	-0.004425
52.725	0.005035	-0.037994	-0.010071	0.014343	0.007629	-0.040894	-0.024567	-0.000305	0.041962	-0.014954	0.19669	-0.23682	-0.13748	-0.02594	0.12802	0.014191	-0.019379	-0.062256	-0.05127	0.011139	-0.087891	0.003967	0.050049	-0.10483	0.02243	-0.010071	0.20508	-0.001221	-0.000458	0.033112	0	-0.000305
52.726	0.008545	-0.007935	-0.061493	0.019531	-0.000916	-0.036163	-0.023499	-0.008087	0.062866	-0.038147	0.35004	0.04303	-0.10452	0.043793	-0.33066	0.006866	0.041199	-0.083923	-0.052948	-0.082855	-0.072021	0.031891	0.062408	-0.085754	0.014191	-0.005341	0.25391	-0.00351	0.2327	-0.038757	0.000458	0.004425
52.727	0.000153	-0.023193	0.010071	0.016022	-0.020905	-0.028534	0.046844	0.004425	0.016327	-0.033875	0.37888	-0.087128	-0.014801	0.041962	0.69565	0.00412	0.07431	-0.028992	-0.030975	-0.066986	0.049744	0.042267	0.037994	-0.044708	0.034027	-0.002441	0.38177	0.003052	0.57159	-0.097504	-0.000458	-0.012207
52.728	-0.001831	-0.000763	0.058899	0.006866	-0.02243	0.008087	0.10696	-0.010223	-0.003052	-0.020447	0.15045	-0.093231	0.042114	0.042419	0.012817	0.019226	0.076599	-0.055847	-0.08255	0.009308	0.15335	0.033722	-0.007477	-0.029144	0.045471	0.004578	0.079498	0.000458	0.33341	-0.10208	-0.004272	-0.00885
52.729	0.010529	0.00473	0.091705	-0.001831	0.003815	-0.005035	0.10025	-0.013428	0.00473	0.009308	-0.059662	-0.063629	0.027161	0.097809	0.36102	0.002594	-0.000305	-0.084229	-0.044403	0.043945	0.04837	0.061493	-0.005798	-0.063782	0.028076	0.000153	-0.17258	0.000916	-0.013275	-0.10498	-0.003052	-0.010986
52.73	0.008698	-0.039825	-0.1001	0.009308	0.037994	-0.032806	0.13504	-0.003204	-0.016632	0.01709	-0.13077	-0.023499	0.057983	0.073395	-0.019531	-0.016022	-0.056152	-0.088196	-0.055237	0.045166	-0.036316	0.025024	-0.014343	-0.030365	0.042267	0.000763	-0.1062	-0.002899	-0.44586	-0.060272	-0.000305	-0.00351
52.731	0.010834	-0.066071	-0.05188	0.013733	0.039063	-0.021667	0.16602	0.004578	-0.001373	0.025482	-0.091095	-0.000458	0.037231	-0.039673	0.19669	-0.021057	-0.068665	-0.12009	-0.04776	0.010223	-0.024109	-0.015106	0.056	-0.080109	0.024414	-0.007935	0.11765	-0.004578	-0.42145	-0.049286	-0.004578	-0.008698
52.732	0.007324	-0.028839	0.01297	-0.005798	0.051575	-0.049591	0.14771	0.012512	-0.020447	0.047455	-0.10635	0.088501	-0.035858	-0.16495	-0.082703	-0.013885	-0.037537	-0.071106	-0.0383	-0.039063	0.023041	-0.053711	0.076141	-0.1091	0	-0.006409	0.16922	-0.003357	-0.71518	-0.039215	-0.004883	-0.007172
52.733	0.010071	-0.0354	-0.018311	-0.006714	0.059814	-0.058594	0.10849	0.007477	-0.031891	0.052948	-0.044556	0.1683	-0.086517	-0.18524	-0.30716	-0.005493	-0.028229	-0.063629	-0.061951	-0.1059	-0.061646	-0.037994	0.037537	-0.081024	0.016479	-0.016479	-0.012512	0.001068	-0.62408	-0.049896	-0.002594	0.000153
52.734	0.002899	-0.059814	-0.072479	-0.004272	0.046539	-0.033569	0.072784	0.006256	-0.073547	0.011902	0.045013	0.33829	-0.066528	-0.20157	-0.35645	0.000763	0.024567	-0.044098	-0.08255	-0.18005	-0.19943	0.036926	0.059967	-0.092316	-0.003204	-0.010376	-0.064545	-0.002289	-0.29007	-0.072632	-0.003052	0.001526
52.735	0.011902	-0.06897	-0.054779	0.005035	0.028687	-0.036011	0.061188	0.003052	0.018463	0.024109	-0.011292	-0.0383	-0.066223	-0.16602	0.095062	0.001984	0.045776	-0.057831	-0.037689	-0.078735	-0.27313	0.056	0.055542	-0.081482	-0.003967	-0.009308	-0.16876	-0.005493	0.39124	-0.085144	-0.000153	0.007782
52.736	0.010223	-0.054169	-0.057526	0.002289	-0.014801	-0.027618	0.13596	-0.008698	-0.013275	0.035706	-0.096741	-0.10162	-0.058289	-0.11993	0.17425	-0.000305	0.004272	-0.045319	-0.025635	0.14206	0.017548	0.030518	0.061646	-0.068817	0.006866	-0.006104	-0.20172	-0.003967	0.5748	-0.12329	-0.001678	0.00885
52.737	0.003357	-0.042877	-0.028992	0.006866	-0.028076	-0.062714	0.17624	-0.007935	-0.089417	0.03006	0.063019	-0.074005	-0.029144	-0.015259	0.20325	-0.003052	-0.024719	-0.066833	-0.007629	0.17487	0.10605	-0.103	0.016327	-0.087128	0.014648	0.011292	0.11749	-0.000153	-0.17227	-0.1506	-0.001831	0.005646
52.738	0.015106	-0.054932	-0.042267	0.001068	-0.001678	-0.067291	0.054474	-0.005035	0.055084	0.017242	0.25207	-0.05722	0.081787	0.059052	0.04303	0.013275	-0.064545	-0.030823	-0.019989	0.10391	-0.033722	-0.16388	0.045624	-0.07843	0.018616	0.008545	0.097809	-0.001068	-0.35843	-0.19058	0.00473	0.005341
